<svg width="100" height="100" viewBox="0 0 100 100" fill="none" xmlns="http://www.w3.org/2000/svg">
	<path d="M60.8 54.8C60.4 54.8 60 54.7 59.7 54.4C59.1 53.8 59.1 52.8 59.7 52.2L81.9 30C85.8 26.2 92 26.3 95.8 30.2C99.5 34 99.5 40 95.8 43.8L85.3 54.3C84.7 54.9 83.7 54.9 83.1 54.3C82.5 53.7 82.5 52.7 83.1 52.1L93.5 41.7C96 39.1 96 35 93.5 32.3C90.9 29.6 86.6 29.5 84 32.1L61.9 54.3C61.6 54.6 61.2 54.8 60.8 54.8Z" fill="#202020" />
	<path d="M39.2 54.1C35.9 54.1 32.6 53.7 29.4 52.8C9.40005 47.5 -2.59995 26.7 2.80005 6.59998C2.90005 6.09998 3.40005 5.69998 3.90005 5.49998C10.3 3.79998 17 3.79998 23.4 5.49998C33.1 8.09998 41.3 14.4 46.3 23.1C51.3 31.8 52.7 42 50.1 51.7C50 52.2 49.5 52.6 49 52.8C45.8 53.7 42.5 54.1 39.2 54.1ZM5.50005 8.29998C1.10005 26.5 12.1 45 30.3 49.9C35.9 51.4 41.8 51.5 47.4 50.1C49.5 41.4 48.2 32.4 43.7 24.6C39.1 16.6 31.6 10.8 22.6 8.39998C17 6.99998 11.1 6.89998 5.50005 8.29998Z" fill="#202020" />
	<path d="M48.6 52.9C48.2 52.9 47.8 52.8 47.5 52.5L10.5 15.5C9.90005 14.9 9.90005 13.9 10.5 13.3C11.1 12.7 12.1 12.7 12.7 13.3L49.7001 50.3C50.3 50.9 50.3 51.9 49.7001 52.5C49.4001 52.8 49 52.9 48.6 52.9Z" fill="#202020" />
	<path d="M28.3 32.6H13.8C13 32.6 12.3 31.9 12.3 31.1C12.3 30.3 13 29.6 13.8 29.6H28.3C29.1 29.6 29.8 30.3 29.8 31.1C29.8 31.9 29.1 32.6 28.3 32.6Z" fill="#202020" />
	<path d="M36.4 40.7C35.6 40.7 34.9 40 34.9 39.2V23.2C34.9 22.4 35.6 21.7 36.4 21.7C37.2 21.7 37.9 22.4 37.9 23.2V39.2C37.9 40 37.2 40.7 36.4 40.7Z" fill="#202020" />
	<path d="M62.3 35.7C59.5 35.7 57.1 34.9 55.3 33.1C50.3 28 52.8 17.4 61.2 8.99998C69.6 0.599982 80.2 -2.00002 85.3 3.09998C90.4 8.19998 87.8 18.8 79.4 27.2C74 32.7 67.5 35.7 62.3 35.7ZM78.4 3.59998C74 3.59998 68.2 6.39998 63.4 11.2C59.9 14.7 57.4 18.8 56.3 22.7C55.3 26.3 55.8 29.2 57.5 31C59.2 32.7 62.2 33.2 65.8 32.2C69.7 31.2 73.8 28.6 77.3 25.1C84.2 18.2 86.9 9.09998 83.2 5.29998C82 4.09998 80.3 3.59998 78.4 3.59998Z" fill="#202020" />
	<path d="M56.4999 33.5C56.0999 33.5 55.7 33.4 55.4 33.1C54.8 32.5 54.8 31.5 55.4 30.9L77.1999 8.99999C77.7999 8.39999 78.8 8.39999 79.4 8.99999C80 9.59999 80 10.6 79.4 11.2L57.4999 33.1C57.1999 33.4 56.7999 33.5 56.4999 33.5Z" fill="#202020" />
	<path d="M67 23C66.2 23 65.5 22.3 65.5 21.5V13C65.5 12.2 66.2 11.5 67 11.5C67.8 11.5 68.5 12.2 68.5 13V21.4C68.5 22.3 67.8 23 67 23Z" fill="#202020" />
	<path d="M66.6 99.5H33.5C32.7 99.5 32 98.8 32 98V95.6C17.3 89.9 7.90002 75.9 7.90002 59.6C7.90002 58.8 8.60002 58.1 9.40002 58.1H90.7C91.5 58.1 92.2 58.8 92.2 59.6C92.2 75.9 82.8 89.9 68.1 95.6V98C68.2 98.8 67.5 99.5 66.6 99.5ZM35 96.4H65.1V94.4C65.1 93.8 65.5 93.2 66.1 93C79.6 88.1 88.5 75.7 89.1 61H11C11.6 75.7 20.5 88.1 34 93C34.6 93.2 35 93.8 35 94.4V96.4Z" fill="#202020" />
</svg>
