<svg width="101" height="100" viewBox="0 0 101 100" fill="none" xmlns="http://www.w3.org/2000/svg">
	<path d="M2.8332 98.5C2.4332 98.5 2.0332 98.4 1.7332 98.1C1.1332 97.5 1.1332 96.6 1.7332 96L96.7332 0.999988C97.3332 0.399988 98.2332 0.399988 98.8332 0.999988C99.4332 1.59999 99.4332 2.49999 98.8332 3.09999L3.8332 98.1C3.6332 98.3 3.2332 98.5 2.8332 98.5Z" fill="#202020" />
	<path d="M33.3332 53.9C21.9332 53.3 12.8332 44.7 11.6332 33.5C10.2332 20.9 19.3332 9.50001 31.9332 8.20001C44.5332 6.80001 55.8332 15.9 57.2332 28.5C57.3332 29.3 56.7332 30.1 55.9332 30.1C55.1332 30.2 54.3332 29.6 54.3332 28.8C53.1332 17.9 43.2332 9.90001 32.3332 11.1C21.3332 12.3 13.3332 22.2 14.5332 33.1C15.6332 42.9 23.5332 50.4 33.4332 50.9C34.2332 50.9 34.9332 51.6 34.8332 52.5C34.7332 53.3 34.1332 53.9 33.3332 53.9Z" fill="#202020" />
	<path d="M49.6333 32C48.8333 32 48.1333 31.4 48.1333 30.6C47.9333 24.2 43.4333 18.9 37.2333 17.6C36.4333 17.4 35.9333 16.6 36.0333 15.8C36.1333 15 37.0333 14.5 37.8333 14.6C45.4333 16.2 50.9333 22.7 51.1333 30.5C51.1333 31.3 50.4333 32 49.6333 32Z" fill="#202020" />
	<path d="M64.0332 84.1C63.3332 84.1 62.6332 83.6 62.5332 82.8C62.4332 82 63.0332 81.2 63.8332 81.1C70.6332 80.2 76.7332 76.7 80.9332 71.2C85.1332 65.7 86.9332 58.9 86.0332 52.1C85.0332 44.8 80.9332 38.2 74.8332 34.1C74.1332 33.6 73.9332 32.7 74.4332 32C74.9332 31.3 75.8332 31.1 76.5332 31.6C83.4332 36.2 87.9332 43.5 89.0332 51.7C90.0332 59.3 88.0332 66.9 83.4332 73C78.7332 79.1 72.0332 83 64.3332 84.1C64.2332 84.1 64.1332 84.1 64.0332 84.1Z" fill="#202020" />
	<path d="M33.1332 58.6C32.3332 58.6 31.7332 58 31.6332 57.2C31.5332 56.1 31.5332 55 31.6332 53.9C32.5332 38 46.2332 25.9 62.0332 26.8C62.8332 26.8 63.4332 27.6 63.4332 28.4C63.4332 29.2 62.6332 29.8 61.8332 29.8C47.7332 29 35.5332 39.9 34.6332 54.1C34.5332 55.1 34.5332 56.1 34.6332 57.1C34.7332 57.9 34.1332 58.6 33.1332 58.6C33.2332 58.6 33.2332 58.6 33.1332 58.6Z" fill="#202020" />
	<path d="M80.4333 57C79.6333 57 78.9333 56.3 78.9333 55.5C78.9333 48.8 75.3333 42.7 69.5333 39.4C68.8333 39 68.5333 38.1 68.9333 37.4C69.3333 36.7 70.2333 36.4 70.9333 36.8C77.6333 40.6 81.8333 47.8 81.8333 55.5C81.9333 56.4 81.3333 57 80.4333 57Z" fill="#202020" />
	<path d="M48.6332 99.5C47.4332 99.5 46.3332 99.4 45.1332 99.1C36.0332 97.2 30.0332 88.2 31.9332 79.1C32.8332 74.7 35.4332 70.9 39.2332 68.4C43.0332 65.9 47.5332 65 51.9332 66C61.0332 67.9 67.0332 76.9 65.1332 86C64.2332 90.4 61.6332 94.2 57.8332 96.7C55.1332 98.5 51.9332 99.5 48.6332 99.5ZM48.6332 68.6C45.9332 68.6 43.3332 69.4 41.0332 70.9C37.9332 72.9 35.7332 76.1 35.0332 79.7C33.4332 87.2 38.3332 94.6 45.8332 96.2C49.5332 97 53.2332 96.2 56.3332 94.2C59.4332 92.2 61.6332 89 62.3332 85.4C63.8332 77.9 59.0332 70.5 51.4332 68.9C50.5332 68.7 49.5332 68.6 48.6332 68.6Z" fill="#202020" />
	<path d="M57.8333 85.9C57.7333 85.9 57.6333 85.9 57.5333 85.9C56.7333 85.7 56.2333 84.9 56.3333 84.1C57.2333 79.8 54.4333 75.7 50.2333 74.8C49.4333 74.6 48.9333 73.8 49.0333 73C49.2333 72.2 50.0333 71.7 50.8333 71.8C56.7333 73 60.4333 78.8 59.2333 84.6C59.1333 85.5 58.5333 85.9 57.8333 85.9Z" fill="#202020" />
</svg>
