<svg width="101" height="100" viewBox="0 0 101 100" fill="none" xmlns="http://www.w3.org/2000/svg">
	<path d="M62.5664 91C62.0664 91 61.5664 90.7 61.2664 90.3C52.1664 74.5 57.5664 54.3 73.3664 45.2C78.3664 42.3 84.0664 40.8 89.8664 40.8C90.3664 40.8 90.8664 41.1 91.1664 41.5C95.5664 49.1 96.7664 58 94.4664 66.6C92.1664 75.1 86.7664 82.2 79.0664 86.7C74.0664 89.5 68.3664 91 62.5664 91ZM88.9664 43.7C83.9664 43.8 79.0664 45.2 74.7664 47.7C60.7664 55.9 55.7664 73.8 63.4664 88C68.4664 87.9 73.3664 86.5 77.6664 84C84.6664 80 89.5664 73.5 91.6664 65.7C93.5664 58.3 92.6664 50.5 88.9664 43.7Z" fill="#202020" />
	<path d="M62.5665 91C62.2665 91 62.0665 90.9 61.8665 90.8C61.1665 90.4 60.8665 89.5 61.3665 88.8L84.1664 49.3C84.5664 48.6 85.4664 48.3 86.1664 48.8C86.8664 49.2 87.1664 50.1 86.6664 50.8L63.8665 90.3C63.5665 90.8 63.0665 91 62.5665 91Z" fill="#202020" />
	<path d="M75.0665 69.3C74.3665 69.3 73.7665 68.9 73.6665 68.2C73.4665 67.4 73.9665 66.6 74.6665 66.4L86.8665 63.1C87.6665 62.9 88.4665 63.4 88.6665 64.1C88.8665 64.9 88.3665 65.7 87.6665 65.9L75.4665 69.2C75.3665 69.3 75.2665 69.3 75.0665 69.3Z" fill="#202020" />
	<path d="M70.0664 78C69.3664 78 68.7664 77.6 68.6664 76.9L65.0664 63.4C64.8664 62.6 65.3664 61.8 66.0664 61.6C66.8664 61.4 67.6664 61.9 67.8664 62.6L71.4664 76.1C71.6664 76.9 71.1664 77.7 70.4664 77.9C70.3664 78 70.1664 78 70.0664 78Z" fill="#202020" />
	<path d="M48.6666 99.4C48.3666 99.4 48.1666 99.3 47.9666 99.2L6.4666 75.2C6.0666 75 5.7666 74.5 5.7666 74V26C5.7666 25.5 6.0666 25 6.4666 24.7L47.9666 0.699976C48.4666 0.399976 48.9666 0.399976 49.4666 0.699976L90.9666 24.7C91.3666 25 91.6666 25.5 91.6666 26V34.7C91.6666 35.5 90.9666 36.2 90.1666 36.2C89.3666 36.2 88.6666 35.5 88.6666 34.7V26.9L48.6666 3.79998L8.6666 26.9V73.1L48.6666 96.2L55.4666 92.3C56.1666 91.9 57.0666 92.1 57.4666 92.8C57.8666 93.5 57.6666 94.4 56.9666 94.8L49.4666 99.1C49.2666 99.3 48.9666 99.4 48.6666 99.4Z" fill="#202020" />
	<path d="M48.6665 51.5C48.3665 51.5 48.1665 51.4 47.9665 51.3L6.46655 27.3C5.76655 26.9 5.46655 26 5.96655 25.3C6.36655 24.6 7.26655 24.3 7.96655 24.8L49.4665 48.8C50.1665 49.2 50.4665 50.1 49.9665 50.8C49.7665 51.2 49.2665 51.5 48.6665 51.5Z" fill="#202020" />
	<path d="M48.6665 99.4C47.8665 99.4 47.1665 98.7 47.1665 97.9V50C47.1665 49.2 47.8665 48.5 48.6665 48.5C49.4665 48.5 50.1665 49.2 50.1665 50V97.9C50.1665 98.7 49.5665 99.4 48.6665 99.4Z" fill="#202020" />
	<path d="M48.6665 51.5C48.1665 51.5 47.6665 51.2 47.3665 50.8C46.9665 50.1 47.1665 49.2 47.8665 48.8L89.3665 24.8C90.0665 24.4 90.9665 24.6 91.3665 25.3C91.7665 26 91.5665 26.9 90.8665 27.3L49.3665 51.3C49.2665 51.4 48.9665 51.5 48.6665 51.5Z" fill="#202020" />
	<path d="M27.9665 39.5C27.4665 39.5 26.9665 39.2 26.6665 38.8C26.2665 38.1 26.4665 37.2 27.1665 36.8L67.4665 12.2C68.1665 11.8 69.0665 12 69.4665 12.7C69.8665 13.4 69.6665 14.3 68.9665 14.7L28.7665 39.3C28.4665 39.4 28.2665 39.5 27.9665 39.5Z" fill="#202020" />
</svg>
