<svg width="100" height="100" viewBox="0 0 100 100" fill="none" xmlns="http://www.w3.org/2000/svg">
	<g clip-path="url(#clip0_3744_1122)">
		<path d="M1.99995 99.5C1.59995 99.5 1.19995 99.4 0.899951 99.1C0.299951 98.5 0.299951 97.6 0.899951 97L96.9 0.999988C97.5 0.399988 98.4 0.399988 99 0.999988C99.6 1.59999 99.6 2.49999 99 3.09999L2.99995 99.1C2.69995 99.4 2.39995 99.5 1.99995 99.5Z" fill="#202020" />
		<path d="M40.1001 91.8C36.3001 91.8 33.1001 88.7 33.1001 84.8C33.1001 80.9 36.2001 77.8 40.1001 77.8C43.9001 77.8 47.1001 80.9 47.1001 84.8C47.1001 86.7 46.4001 88.4 45.1001 89.7C43.7001 91.1 42.0001 91.8 40.1001 91.8ZM40.1001 80.9C37.9001 80.9 36.1001 82.7 36.1001 84.9C36.1001 87.1 37.9001 88.9 40.1001 88.9C41.2001 88.9 42.2001 88.5 42.9001 87.7C43.7001 86.9 44.1001 85.9 44.1001 84.9C44.1001 82.7 42.3001 80.9 40.1001 80.9Z" fill="#202020" />
		<path d="M57.8999 83.5C54.0999 83.5 50.8999 80.4 50.8999 76.5C50.8999 72.7 53.9999 69.5 57.8999 69.5C61.6999 69.5 64.8999 72.6 64.8999 76.5C64.7999 80.4 61.6999 83.5 57.8999 83.5ZM57.8999 72.5C55.6999 72.5 53.8999 74.3 53.8999 76.5C53.8999 78.7 55.6999 80.5 57.8999 80.5C60.0999 80.5 61.8999 78.7 61.8999 76.5C61.7999 74.3 60.0999 72.5 57.8999 72.5Z" fill="#202020" />
		<path d="M31.1 61.1C30.9 61.1 30.7 61.1 30.5 61C29.8 60.6 29.4 59.8 29.8 59L39.5 38.9V9.59998C39.5 8.79998 40.2 8.09998 41 8.09998H59.1C59.9 8.09998 60.6 8.79998 60.6 9.59998V31.6C60.6 32.4 59.9 33.1 59.1 33.1C58.3 33.1 57.6 32.4 57.6 31.6V11H42.4V39.1C42.4 39.3 42.3 39.5 42.3 39.7L32.4 60.1C32.2 60.8 31.6 61.1 31.1 61.1Z" fill="#202020" />
		<path d="M25.4999 98.6C21.3999 98.6 17.6999 95.8 16.4999 91.8C16.2999 91 16.6999 90.2 17.4999 90C18.2999 89.8 19.0999 90.2 19.2999 91C20.0999 93.7 22.5999 95.6 25.3999 95.6H74.2999C77.7999 95.6 80.6999 92.7 80.6999 89.2C80.6999 88.2 80.4999 87.3 80.0999 86.4L61.3999 47.3C60.9999 46.6 61.3999 45.7 62.0999 45.3C62.7999 44.9 63.6999 45.3 64.0999 46L82.9999 85.1C83.5999 86.4 83.8999 87.8 83.8999 89.2C83.8999 94.4 79.6999 98.6 74.4999 98.6H25.4999Z" fill="#202020" />
		<path d="M59 11H41C39.7 11 38.4999 10.5 37.5999 9.60003C36.6999 8.70003 36.2 7.50002 36.2 6.20002C36.2 3.50002 38.4 1.40002 41 1.40002H59C61.7 1.40002 63.7999 3.60002 63.7999 6.20002C63.7999 8.90002 61.7 11 59 11ZM41 4.40002C40 4.40002 39.2 5.20002 39.2 6.20002C39.2 6.70002 39.4 7.20002 39.7 7.50002C40 7.90002 40.5 8.10002 41 8.10002H59C60 8.10002 60.7999 7.30002 60.7999 6.30002C60.7999 5.30002 60 4.50002 59 4.50002H41V4.40002Z" fill="#202020" />
		<path d="M70.7999 64.9H45.8999C45.0999 64.9 44.3999 64.2 44.3999 63.4C44.3999 62.6 45.0999 61.9 45.8999 61.9H70.7999C71.5999 61.9 72.2999 62.6 72.2999 63.4C72.2999 64.3 71.5999 64.9 70.7999 64.9Z" fill="#202020" />
	</g>
	<defs>
		<clipPath id="clip0_3744_1122">
			<rect width="100" height="100" fill="white" />
		</clipPath>
	</defs>
</svg>
